<svg width="945" height="174" viewBox="0 0 945 174" fill="none" xmlns="http://www.w3.org/2000/svg">
<g clip-path="url(#clip0_9_484)">
<path d="M229.932 111.114C229.932 119.358 240.736 126.038 253.896 126.038C267.055 126.038 277.948 119.358 277.948 111.114C277.948 104.088 270.28 98.1852 259.909 96.626L247.097 94.6316C231.413 92.1135 219.649 81.4448 219.649 68.689C219.649 54.1121 234.986 42.2266 253.896 42.2266C272.805 42.2266 288.231 54.1121 288.231 68.689H275.334C275.334 60.9654 265.748 54.7205 253.896 54.7205C242.043 54.7205 232.457 60.9694 232.457 68.689C232.457 75.1958 239.429 80.7477 248.752 82.2223L261.564 84.2167C278.207 86.8194 290.845 97.8387 290.845 111.114C290.845 126.211 274.286 138.532 253.896 138.532C233.505 138.532 217.035 126.211 217.035 111.114H229.932V111.114Z" fill="white"/>
<path d="M305.047 68.8619H317.684V76.0617C323.872 70.7676 331.888 67.5605 340.689 67.5605C360.384 67.5605 376.332 83.5234 376.332 103.048C376.332 122.572 360.384 138.535 340.689 138.535C331.888 138.535 323.872 135.324 317.684 130.119V173.934H305.047V68.8619ZM340.689 80.1391C327.967 80.1391 317.684 90.3767 317.684 103.044C317.684 115.711 327.967 126.037 340.689 126.037C353.412 126.037 363.783 115.711 363.783 103.044C363.783 90.3767 353.412 80.1391 340.689 80.1391Z" fill="white"/>
<path d="M390.965 38.4956H403.602V74.1562C409.005 70.0789 415.714 67.5607 423.034 67.5607C440.722 67.5607 455.103 81.8757 455.103 99.4905V137.234H442.555V99.4905C442.555 88.8177 433.843 80.1433 423.034 80.1433C412.226 80.1433 403.602 88.8177 403.602 99.4905V137.234H390.965V38.4956V38.4956Z" fill="white"/>
<path d="M539.367 108.685H481.768C484.293 118.66 493.357 126.037 504.162 126.037C511.83 126.037 518.628 122.307 522.809 116.581H537.101C531.784 129.422 519.061 138.531 504.162 138.531C484.467 138.531 468.52 122.653 468.52 103.044C468.52 83.4349 484.467 67.5566 504.162 67.5566C523.857 67.5566 539.804 83.5195 539.804 103.044C539.804 104.954 539.63 106.863 539.367 108.685V108.685ZM482.027 96.6258H526.297C523.509 87.0811 514.618 80.1392 504.162 80.1392C493.705 80.1392 484.815 87.0811 482.027 96.6258Z" fill="white"/>
<path d="M554.441 68.8623H567.079V77.2789C573.266 72.0734 581.282 68.8623 589.999 68.8623H595.664V81.4408H589.999C577.361 81.4408 567.079 91.6785 567.079 104.261V137.23H554.441V68.8623Z" fill="white"/>
<path d="M672.606 108.685H615.006C617.531 118.66 626.596 126.037 637.4 126.037C645.068 126.037 651.867 122.307 656.047 116.581H670.339C665.022 129.422 652.3 138.531 637.4 138.531C617.705 138.531 601.758 122.653 601.758 103.044C601.758 83.4349 617.705 67.5566 637.4 67.5566C657.095 67.5566 673.043 83.5195 673.043 103.044C673.043 104.954 672.869 106.863 672.606 108.685V108.685ZM615.265 96.6258H659.535C656.747 87.0811 647.857 80.1392 637.4 80.1392C626.944 80.1392 618.053 87.0811 615.265 96.6258Z" fill="white"/>
<path d="M733.076 138.532C706.409 138.532 684.711 116.928 684.711 90.3771C684.711 63.8261 706.409 42.2227 733.076 42.2227C759.743 42.2227 781.441 63.8261 781.441 90.3771C781.441 116.928 759.828 138.532 733.076 138.532ZM733.076 54.7206C713.381 54.7206 697.348 70.6834 697.348 90.3812C697.348 110.079 713.381 126.042 733.076 126.042C752.771 126.042 768.892 110.079 768.892 90.3812C768.892 70.6834 752.86 54.7206 733.076 54.7206V54.7206Z" fill="white"/>
<path d="M796.164 68.8619H808.802V74.156C814.204 70.0787 820.913 67.5605 828.233 67.5605C845.921 67.5605 860.302 81.8755 860.302 99.4903V137.234H847.754V99.4903C847.754 88.8175 839.042 80.1431 828.233 80.1431C817.425 80.1431 808.802 88.8175 808.802 99.4903V137.234H796.164V68.8619V68.8619Z" fill="white"/>
<path d="M944.563 108.685H886.963C889.488 118.66 898.553 126.037 909.357 126.037C917.026 126.037 923.824 122.307 928.004 116.581H942.297C936.979 129.422 924.257 138.531 909.357 138.531C889.662 138.531 873.715 122.653 873.715 103.044C873.715 83.4349 889.662 67.5566 909.357 67.5566C929.052 67.5566 945 83.5195 945 103.044C945 104.954 944.826 106.863 944.563 108.685ZM887.222 96.6258H931.492C928.704 87.0811 919.814 80.1392 909.357 80.1392C898.901 80.1392 890.011 87.0811 887.222 96.6258V96.6258Z" fill="white"/>
<g clip-path="url(#clip1_9_484)">
<path d="M2.92969 75.8146C8.36463 67.0652 13.5546 58.8383 18.6122 50.532C28.5884 34.1442 42.3578 21.8237 59.2982 12.6113C66.0174 8.95418 72.1474 4.24551 78.5886 -0.00683594C78.0193 5.2309 77.6817 11.0638 76.6887 16.7843C75.411 24.1052 74.0606 31.4592 71.9356 38.5751C65.5672 59.9229 50.3679 71.3969 28.456 74.3465C19.9428 75.4972 11.2509 75.3715 2.93631 75.8146H2.92969Z" fill="white"/>
<path d="M78.5013 172.045C72.0072 167.786 65.7315 163.004 58.8535 159.301C40.6421 149.487 26.7933 135.711 16.9362 117.71C12.8584 110.257 7.66173 103.392 2.92188 96.1836C7.61539 96.5407 12.9246 96.5341 18.0748 97.4269C26.3166 98.8554 34.8364 99.9003 42.5552 102.85C57.6023 108.603 67.4924 119.681 72.1197 135.09C75.8335 147.437 77.9055 160.035 78.4947 172.045H78.5013Z" fill="white"/>
<path d="M173.948 75.8146C168.513 67.0652 163.323 58.8383 158.265 50.532C148.289 34.1442 134.52 21.8237 117.579 12.6113C110.86 8.95418 104.73 4.24551 98.2891 -0.00683594C98.8584 5.2309 99.196 11.0638 100.189 16.7843C101.467 24.1052 102.817 31.4592 104.942 38.5751C111.31 59.9229 126.51 71.3969 148.422 74.3465C156.935 75.4972 165.627 75.3715 173.941 75.8146H173.948Z" fill="white"/>
<path d="M98.3672 172.045C104.861 167.786 111.137 163.004 118.015 159.301C136.226 149.487 150.075 135.711 159.932 117.71C164.01 110.257 169.207 103.392 173.947 96.1836C169.253 96.5407 163.944 96.5341 158.794 97.4269C150.552 98.8554 142.032 99.9003 134.313 102.85C119.266 108.603 109.376 119.681 104.749 135.09C101.035 147.437 98.963 160.035 98.3738 172.045H98.3672Z" fill="white"/>
<path d="M87.5412 107.444C99.438 107.444 109.082 97.9427 109.082 86.2221C109.082 74.5014 99.438 65 87.5412 65C75.6443 65 66 74.5014 66 86.2221C66 97.9427 75.6443 107.444 87.5412 107.444Z" fill="white"/>
</g>
</g>
<defs>
<clipPath id="clip0_9_484">
<rect width="945" height="174" fill="white"/>
</clipPath>
<clipPath id="clip1_9_484">
<rect width="171.019" height="172.045" fill="white" transform="translate(2.92969)"/>
</clipPath>
</defs>
</svg>
